<svg xmlns="http://www.w3.org/2000/svg" viewBox="-6 -9 350 360" fill="none" role="img" aria-hidden="true">
  <rect x="-6" y="-9" width="350" height="360" rx="83" fill="#FFFFFF"/>
  <path d="M165.88 19.8618C205.294 19.3545 243.287 34.5735 271.45 62.1515C292.693 83.036 307.092 109.878 312.742 139.125C313.455 142.97 316.275 156.03 313.323 159.307C311 161.223 304.882 161.252 301.992 160.953C297.74 160.512 287.08 162.562 284.802 158.456C284.362 157.663 283.322 149.9 283.12 148.698C282.702 146.326 282.22 143.966 281.67 141.622C276.83 120.999 266.47 102.082 251.7 86.8988C230.363 64.6848 201.043 51.9058 170.247 51.398C163.656 51.4133 158.303 51.6103 151.678 52.5625C106.937 59.0215 69.8858 90.6085 56.4293 133.764C54.1108 141.28 52.9778 148.617 51.6788 156.302C51.065 159.733 48.818 160.989 45.4738 160.977C38.7428 160.955 31.8295 161.183 25.128 160.702C22.5974 160.52 21.0782 157.816 21.1376 155.442C21.2724 150.062 22.1356 144.435 23.1866 139.153C28.5958 112.076 41.39 87.023 60.1535 66.7658C82.576 42.7438 112.361 26.8738 144.805 21.6613C151.863 20.5389 158.762 20.0985 165.88 19.8618Z" fill="#2B2B2D"/>
  <path d="M25.2153 177.577C29.845 177.394 34.6138 177.448 39.2575 177.464C42.2343 177.667 50.1343 176.455 51.2633 180.298C52.5858 184.799 52.995 190.259 54.0975 195.034C57.46 209.845 63.6365 223.871 72.2913 236.351C89.9858 261.73 116.951 279.135 147.366 284.805C177.818 290.375 209.23 283.5 234.571 265.72C255.758 250.99 272.377 228.652 279.745 203.854C280.872 200.058 281.94 196.087 282.638 192.185C283.173 189.211 283.433 186.188 283.983 183.216C284.24 181.815 284.813 179.472 286.103 178.648C287.138 177.986 288.447 177.701 289.652 177.561C292.54 177.225 308.742 177.086 311.087 177.653C312.35 177.959 313.462 178.824 314.122 179.938C316.235 183.498 311.697 204.142 310.455 208.695C309.875 211.987 307.583 218.619 306.44 221.685C292.673 258.53 264.898 288.44 229.17 304.893C193.547 321.013 152.988 322.36 116.373 308.64C65.6765 289.548 28.4205 243.278 21.8271 189.259C21.2376 184.429 19.7042 179.563 25.2153 177.577Z" fill="#222224"/>
  <path d="M73.9928 167.554C82.0705 167.163 92.5013 167.466 100.696 167.474H148.757L221.26 167.488C225.86 167.487 261.148 167.075 263.27 168.005C264.99 168.774 266.335 170.191 267.013 171.947C268.685 176.255 266.628 180.431 262.343 182.002C250.508 182.487 237.435 182.188 225.55 182.191L161.281 182.208L102.701 182.169C96.3005 182.161 79.3733 182.581 73.0525 181.644C68.408 180.955 66.1945 171.351 73.9928 167.554Z" fill="#B0D22A"/>
</svg>
