<svg xmlns="http://www.w3.org/2000/svg" xmlns:dc="http://purl.org/dc/elements/1.1/" xmlns:cc="http://creativecommons.org/ns#" xmlns:rdf="http://www.w3.org/1999/02/22-rdf-syntax-ns#" xmlns:svg="http://www.w3.org/2000/svg" xmlns:sodipodi="http://sodipodi.sourceforge.net/DTD/sodipodi-0.dtd" xmlns:inkscape="http://www.inkscape.org/namespaces/inkscape" viewBox="0 0 32 32" role="img" aria-hidden="true">
  <rect width="32" height="32" rx="8" fill="#ffffff"/>
  <svg x="5" y="5" width="22" height="22" viewBox="0 0 733.6051 277.98776" preserveAspectRatio="xMidYMid meet">
    <defs
     id="defs3319">
    <clipPath
       clipPathUnits="userSpaceOnUse"
       id="clipPath80">
      <path
         inkscape:connector-curvature="0"
         d="m 213.92,168.579 165.045,0 0,62.541 -165.045,0 0,-62.541 z"
         id="path82" />
    </clipPath>
  </defs>
  
  
  <g
     inkscape:label="Layer 1"
     inkscape:groupmode="layer"
     id="layer1"
     transform="translate(-3.0661668,-325.22743)">
    <g
       transform="matrix(4.4448956,0,0,-4.4448956,-947.7859,1352.5317)"
       clip-path="url(#clipPath80)"
       id="g78">
      <g
         transform="translate(258.3128,173.7689)"
         id="g84">
        <path
           inkscape:connector-curvature="0"
           id="path86"
           style="fill:#414142;fill-opacity:1;fill-rule:nonzero;stroke:none"
           d="M 0,0 C -1.585,0 -2.875,1.272 -2.875,2.836 -2.875,4.4 -1.585,5.673 0,5.673 1.585,5.673 2.875,4.4 2.875,2.836 2.875,1.272 1.585,0 0,0 M 2.875,6.947 C 2.058,7.505 1.067,7.834 0,7.834 c -2.347,0 -4.326,-1.583 -4.898,-3.724 0,0 -0.167,-0.584 -0.167,-1.316 0,-0.732 0.167,-1.231 0.167,-1.231 0.572,-2.141 2.551,-3.724 4.898,-3.724 1.067,0 2.058,0.328 2.875,0.887 l 0,-0.623 2.19,0 0,9.436 -2.19,0 0,-0.592 z" />
      </g>
      <g
         transform="translate(270.6778,179.1528)"
         id="g88">
        <path
           inkscape:connector-curvature="0"
           id="path90"
           style="fill:#414142;fill-opacity:1;fill-rule:nonzero;stroke:none"
           d="m 0,0 c 0,-2.471 -1.772,-4.541 -4.128,-5.039 l 0,7.194 -2.19,0 0,-9.468 1.095,0 c 3.203,0 5.844,1.919 6.971,4.825 0.348,0.897 0.376,1.521 0.419,1.93 C 2.183,-0.393 2.19,-0.188 2.19,0 l 0,2.155 L 0,2.155 0,0 z" />
      </g>
      <g
         transform="translate(278.4911,179.4415)"
         id="g92">
        <path
           inkscape:connector-curvature="0"
           id="path94"
           style="fill:#414142;fill-opacity:1;fill-rule:nonzero;stroke:none"
           d="m 0,0 c 1.105,0 2.065,-0.618 2.546,-1.522 l -5.093,0 C -2.065,-0.618 -1.105,0 0,0 m 1.268,-3.683 3.723,0 c 0.048,0.276 0.074,0.558 0.074,0.847 0,2.755 -2.272,4.997 -5.065,4.997 -1.445,0 -2.696,-0.572 -3.597,-1.461 -1.016,-1.003 -1.468,-2.292 -1.468,-3.536 0,-2.756 2.272,-4.997 5.065,-4.997 1.941,0 3.657,1.113 4.48,2.669 0.112,0.211 0.178,0.372 0.229,0.488 l -2.525,0 C 1.656,-5.285 0.873,-5.673 0,-5.673 c -1.287,0 -2.379,0.839 -2.744,1.99 l 4.012,0 z" />
      </g>
      <g
         transform="translate(250.1312,175.8651)"
         id="g96">
        <path
           inkscape:connector-curvature="0"
           id="path98"
           style="fill:#414142;fill-opacity:1;fill-rule:nonzero;stroke:none"
           d="m 0,0 c 0,-1.077 -0.895,-1.953 -1.996,-1.953 -1.023,0 -1.868,0.757 -1.982,1.729 0.004,0.074 0.012,0.149 0.012,0.224 l 0,5.443 -0.026,0 -2.322,0 -0.025,0 0,-5.443 c 0,-0.075 0.007,-0.15 0.011,-0.224 -0.114,-0.972 -0.959,-1.729 -1.982,-1.729 -1.1,0 -1.996,0.876 -1.996,1.953 l 0,5.443 -2.347,0 0,-5.443 c 0,-2.372 1.948,-4.301 4.343,-4.301 1.244,0 2.365,0.523 3.157,1.356 0.793,-0.833 1.913,-1.356 3.157,-1.356 2.395,0 4.343,1.929 4.343,4.301 l 0,5.443 L 0,5.443 0,0 z" />
      </g>
      <g
         transform="translate(227.9682,172.2371)"
         id="g100">
        <path
           inkscape:connector-curvature="0"
           id="path102"
           style="fill:#414142;fill-opacity:1;fill-rule:nonzero;stroke:none"
           d="m 0,0 -3.555,9.068 2.404,0 2.302,-6.269 2.266,6.269 2.405,0 -4.963,-12.726 -2.405,0 L 0,0 z" />
      </g>
      <g
         transform="translate(216.9662,176.6093)"
         id="g104">
        <path
           inkscape:connector-curvature="0"
           id="path106"
           style="fill:#414142;fill-opacity:1;fill-rule:nonzero;stroke:none"
           d="M 0,0 C 0,1.564 1.29,2.836 2.875,2.836 4.46,2.836 5.75,1.564 5.75,0 5.75,-1.564 4.46,-2.836 2.875,-2.836 1.29,-2.836 0,-1.564 0,0 m 0,7.48 -2.19,0 0,-12.213 2.19,0 0,0.622 c 0.818,-0.558 1.808,-0.886 2.875,-0.886 2.347,0 4.325,1.583 4.898,3.723 0,0 0.167,0.5 0.167,1.232 C 7.94,0.69 7.773,1.274 7.773,1.274 7.2,3.414 5.222,4.997 2.875,4.997 1.808,4.997 0.818,4.669 0,4.111 L 0,7.48 z" />
      </g>
      <g
         transform="translate(230.2618,202.2474)"
         id="g108">
        <path
           inkscape:connector-curvature="0"
           id="path110"
           style="fill:#00bfdf;fill-opacity:1;fill-rule:nonzero;stroke:none"
           d="m 0,0 c -1.261,-0.81 -3.197,-1.215 -5.627,-1.486 -2.926,-0.315 -4.728,-0.945 -4.728,-2.656 0,-1.305 1.532,-2.205 3.917,-2.205 3.557,0 6.438,1.215 6.438,4.186 L 0,0 z m 0.18,-9.004 c -1.53,-1.621 -3.871,-2.611 -7.113,-2.611 -4.907,0 -9.409,2.476 -9.409,7.518 0,5.223 4.367,6.573 9.5,7.023 3.87,0.36 6.617,0.811 6.617,2.701 0,1.216 -1.575,2.206 -4.232,2.206 -2.115,0 -4.546,-0.945 -5.087,-2.926 l -5.942,0 c 0.585,4.412 4.817,7.698 10.894,7.698 9.409,0 10.129,-6.077 10.129,-7.923 l 0,-12.065 c 0,-1.126 0.361,-2.881 0.675,-3.782 l -5.446,0 c -0.271,0.586 -0.451,1.306 -0.586,2.161" />
      </g>
      <g
         transform="translate(248.9624,190.5429)"
         id="g112">
        <path
           inkscape:connector-curvature="0"
           id="path114"
           style="fill:#00bfdf;fill-opacity:1;fill-rule:nonzero;stroke:none"
           d="m 0,0 c -5.898,0 -10.265,3.106 -10.985,8.103 l 6.032,0 C -4.142,6.122 -1.756,5.402 0,5.402 c 2.386,0 4.186,0.72 4.186,2.071 0,1.305 -0.811,1.846 -4.862,2.476 -4.141,0.63 -9.679,1.755 -9.679,6.933 0,3.646 3.196,7.428 9.904,7.428 5.312,0 9.274,-2.882 10.04,-7.248 l -6.168,0 c -0.36,1.08 -1.666,1.935 -3.872,1.935 -2.746,0 -3.871,-0.99 -3.871,-1.845 0,-1.216 1.71,-1.621 4.591,-2.071 5.763,-0.945 9.904,-2.206 9.904,-7.248 C 10.173,3.241 5.942,0 0,0" />
      </g>
      <g
         transform="translate(273.772,191.1281)"
         id="g116">
        <path
           inkscape:connector-curvature="0"
           id="path118"
           style="fill:#00bfdf;fill-opacity:1;fill-rule:nonzero;stroke:none"
           d="m 0,0 c -6.798,-0.72 -10.399,3.376 -10.399,9.724 l 0,8.148 -2.791,0 0,5.267 2.791,0 0,7.67 5.942,0 0,-7.67 4.187,0 0,-5.267 -4.187,0 0,-8.193 C -4.457,6.437 -2.972,5.222 0,5.402 L 0,0 z" />
      </g>
      <g
         transform="translate(292.761,202.6076)"
         id="g120">
        <path
           inkscape:connector-curvature="0"
           id="path122"
           style="fill:#00bfdf;fill-opacity:1;fill-rule:nonzero;stroke:none"
           d="m 0,0 c 0,4.007 -2.566,6.798 -5.717,6.798 -3.152,0 -5.717,-2.791 -5.717,-6.798 0,-3.917 2.565,-6.618 5.717,-6.618 C -2.566,-6.618 0,-3.917 0,0 m 5.987,0.045 c 0,-6.933 -5.267,-12.11 -11.704,-12.11 -6.438,0 -11.661,5.177 -11.661,12.11 0,6.933 5.223,12.2 11.661,12.2 6.437,0 11.704,-5.267 11.704,-12.2" />
      </g>
      <g
         transform="translate(321.2991,191.0828)"
         id="g124">
        <path
           inkscape:connector-curvature="0"
           id="path126"
           style="fill:#00bfdf;fill-opacity:1;fill-rule:nonzero;stroke:none"
           d="m 0,0 -5.672,0 0,2.115 C -7.112,0.45 -9.139,-0.54 -11.57,-0.54 c -5.492,0 -9.139,4.096 -9.139,10.174 l 0,13.551 5.943,0 0,-13.551 c 0,-1.305 0.45,-4.547 4.322,-4.547 2.657,0 4.502,1.981 4.502,4.547 l 0,13.551 5.942,0 L 0,0 z" />
      </g>
      <g
         transform="translate(344.0596,191.0828)"
         id="g128">
        <path
           inkscape:connector-curvature="0"
           id="path130"
           style="fill:#00bfdf;fill-opacity:1;fill-rule:nonzero;stroke:none"
           d="m 0,0 -5.942,0 0,13.55 c 0,1.351 -0.405,4.592 -4.322,4.592 -2.656,0 -4.502,-1.981 -4.502,-4.592 l 0,-13.55 -5.942,0 0,23.185 5.672,0 0,-2.251 c 1.486,1.756 3.511,2.836 5.987,2.836 C -3.6,23.77 0,19.673 0,13.55 L 0,0 z" />
      </g>
      <g
         transform="translate(357.7315,209.2706)"
         id="g132">
        <path
           inkscape:connector-curvature="0"
           id="path134"
           style="fill:#00bfdf;fill-opacity:1;fill-rule:nonzero;stroke:none"
           d="m 0,0 c -3.287,0 -5.943,-2.881 -5.943,-6.663 0,-3.692 2.656,-6.528 5.943,-6.528 3.286,0 5.942,2.927 5.942,6.528 C 5.942,-2.972 3.286,0 0,0 m 11.884,-18.188 -5.672,0 0,2.476 c -1.846,-1.89 -4.276,-2.971 -7.113,-2.971 -6.032,0 -11.03,5.222 -11.03,12.065 0,6.888 4.998,12.11 11.03,12.11 2.701,0 5.042,-0.991 6.843,-2.701 l 0,9.875 5.942,0 0,-30.854 z" />
      </g>
      <path
         inkscape:connector-curvature="0"
         id="path136"
         style="fill:#414142;fill-opacity:1;fill-rule:nonzero;stroke:none"
         d="m 274.348,223.524 -0.377,0 0,5.258 0.377,0 0,-5.258 z m 0,6.146 -0.377,0 0,0.939 0.377,0 0,-0.939 z" />
      <g
         transform="translate(280.2901,223.5237)"
         id="g138">
        <path
           inkscape:connector-curvature="0"
           id="path140"
           style="fill:#414142;fill-opacity:1;fill-rule:nonzero;stroke:none"
           d="m 0,0 -0.378,0 0,3.175 c 0,1.154 -0.623,1.848 -1.777,1.848 -1.061,0 -1.888,-0.786 -1.888,-1.848 l 0,-3.175 -0.378,0 0,5.258 0.378,0 0,-0.888 c 0.377,0.623 1.062,1.02 1.899,1.02 C -0.797,5.39 0,4.543 0,3.175 L 0,0 z" />
      </g>
      <g
         transform="translate(282.1697,225.3411)"
         id="g142">
        <path
           inkscape:connector-curvature="0"
           id="path144"
           style="fill:#414142;fill-opacity:1;fill-rule:nonzero;stroke:none"
           d="m 0,0 c 0,-0.899 0.418,-1.511 1.419,-1.47 l 0,-0.348 C 0.286,-1.92 -0.377,-1.174 -0.377,0 l 0,3.063 -0.716,0 0,0.378 0.716,0 0,1.123 0.377,0 0,-1.123 1.419,0 0,-0.378 L 0,3.063 0,0 z" />
      </g>
      <g
         transform="translate(288.7966,226.5356)"
         id="g146">
        <path
           inkscape:connector-curvature="0"
           id="path148"
           style="fill:#414142;fill-opacity:1;fill-rule:nonzero;stroke:none"
           d="M 0,0 C -0.184,1.133 -1.113,1.991 -2.215,1.991 -3.329,1.991 -4.247,1.133 -4.421,0 L 0,0 z m -4.461,-0.378 c 0.009,-1.368 1.031,-2.379 2.306,-2.379 1.236,0 1.797,0.685 2.053,1.379 l 0.398,0 c -0.368,-1.134 -1.215,-1.757 -2.451,-1.757 -1.5,0 -2.685,1.205 -2.685,2.737 0,1.531 1.174,2.777 2.625,2.777 1.572,0 2.644,-1.43 2.623,-2.757 l -4.869,0 z" />
      </g>
      <g
         transform="translate(292.7383,228.5468)"
         id="g150">
        <path
           inkscape:connector-curvature="0"
           id="path152"
           style="fill:#414142;fill-opacity:1;fill-rule:nonzero;stroke:none"
           d="m 0,0 c -0.694,0.061 -1.225,-0.133 -1.552,-0.449 -0.377,-0.337 -0.582,-0.848 -0.582,-1.399 l 0,-3.175 -0.388,0 0,5.258 0.388,0 0,-0.878 c 0.092,0.174 0.205,0.337 0.347,0.469 0.46,0.409 1.073,0.603 1.787,0.521 L 0,0 z" />
      </g>
      <g
         transform="translate(297.9869,223.5237)"
         id="g154">
        <path
           inkscape:connector-curvature="0"
           id="path156"
           style="fill:#414142;fill-opacity:1;fill-rule:nonzero;stroke:none"
           d="m 0,0 -0.378,0 0,3.175 c 0,1.154 -0.623,1.848 -1.777,1.848 -1.061,0 -1.888,-0.786 -1.888,-1.848 l 0,-3.175 -0.378,0 0,5.258 0.378,0 0,-0.888 c 0.377,0.623 1.062,1.02 1.899,1.02 C -0.797,5.39 0,4.543 0,3.175 L 0,0 z" />
      </g>
      <g
         transform="translate(303.7974,226.5356)"
         id="g158">
        <path
           inkscape:connector-curvature="0"
           id="path160"
           style="fill:#414142;fill-opacity:1;fill-rule:nonzero;stroke:none"
           d="M 0,0 C -0.184,1.133 -1.113,1.991 -2.215,1.991 -3.329,1.991 -4.247,1.133 -4.421,0 L 0,0 z m -4.461,-0.378 c 0.009,-1.368 1.031,-2.379 2.306,-2.379 1.236,0 1.797,0.685 2.053,1.379 l 0.398,0 c -0.368,-1.134 -1.215,-1.757 -2.451,-1.757 -1.5,0 -2.685,1.205 -2.685,2.737 0,1.531 1.174,2.777 2.625,2.777 1.572,0 2.643,-1.43 2.623,-2.757 l -4.869,0 z" />
      </g>
      <g
         transform="translate(305.6665,225.3411)"
         id="g162">
        <path
           inkscape:connector-curvature="0"
           id="path164"
           style="fill:#414142;fill-opacity:1;fill-rule:nonzero;stroke:none"
           d="m 0,0 c 0,-0.899 0.418,-1.511 1.419,-1.47 l 0,-0.348 C 0.286,-1.92 -0.377,-1.174 -0.377,0 l 0,3.063 -0.716,0 0,0.378 0.716,0 0,1.123 0.377,0 0,-1.123 1.419,0 0,-0.378 L 0,3.063 0,0 z" />
      </g>
      <path
         inkscape:connector-curvature="0"
         id="path166"
         style="fill:#414142;fill-opacity:1;fill-rule:nonzero;stroke:none"
         d="m 311.549,223.524 -0.377,0 0,7.596 0.377,0 0,-7.596 z" />
      <g
         transform="translate(316.5625,225.3411)"
         id="g168">
        <path
           inkscape:connector-curvature="0"
           id="path170"
           style="fill:#414142;fill-opacity:1;fill-rule:nonzero;stroke:none"
           d="m 0,0 c 0,-0.899 0.418,-1.511 1.419,-1.47 l 0,-0.348 C 0.285,-1.92 -0.377,-1.174 -0.377,0 l 0,3.063 -0.716,0 0,0.378 0.716,0 0,1.123 0.377,0 0,-1.123 1.419,0 0,-0.378 L 0,3.063 0,0 z" />
      </g>
      <g
         transform="translate(320.9122,223.5237)"
         id="g172">
        <path
           inkscape:connector-curvature="0"
           id="path174"
           style="fill:#414142;fill-opacity:1;fill-rule:nonzero;stroke:none"
           d="m 0,0 -0.408,0 -2.022,5.258 0.409,0 1.817,-4.737 1.817,4.737 0.409,0 L 0,0 z" />
      </g>
      <path
         inkscape:connector-curvature="0"
         id="path176"
         style="fill:#414142;fill-opacity:1;fill-rule:nonzero;stroke:none"
         d="m 327.224,223.524 -0.377,0 0,7.596 0.377,0 0,-7.596 z" />
      <g
         transform="translate(334.3612,228.5265)"
         id="g178">
        <path
           inkscape:connector-curvature="0"
           id="path180"
           style="fill:#414142;fill-opacity:1;fill-rule:nonzero;stroke:none"
           d="m 0,0 c -1.235,0 -2.246,-1.072 -2.246,-2.389 0,-1.297 1.011,-2.358 2.246,-2.358 1.245,0 2.246,1.061 2.246,2.358 C 2.246,-1.072 1.245,0 0,0 m 0,-5.125 c -0.97,0 -1.807,0.561 -2.246,1.388 l 0,-3.604 -0.378,0 0,7.596 0.378,0 0,-1.276 C -1.807,-0.184 -0.97,0.388 0,0.388 1.449,0.388 2.634,-0.857 2.634,-2.389 2.634,-3.9 1.449,-5.125 0,-5.125" />
      </g>
      <g
         transform="translate(342.428,223.5237)"
         id="g182">
        <path
           inkscape:connector-curvature="0"
           id="path184"
           style="fill:#414142;fill-opacity:1;fill-rule:nonzero;stroke:none"
           d="m 0,0 -0.378,0 0,3.175 c 0,1.154 -0.623,1.848 -1.777,1.848 -1.061,0 -1.888,-0.786 -1.888,-1.848 l 0,-3.175 -0.378,0 0,7.596 0.378,0 0,-3.226 c 0.377,0.623 1.062,1.02 1.899,1.02 C -0.797,5.39 0,4.543 0,3.175 L 0,0 z" />
      </g>
      <g
         transform="translate(348.2688,226.1374)"
         id="g186">
        <path
           inkscape:connector-curvature="0"
           id="path188"
           style="fill:#414142;fill-opacity:1;fill-rule:nonzero;stroke:none"
           d="m 0,0 c 0,1.338 -1,2.42 -2.246,2.42 -1.235,0 -2.246,-1.082 -2.246,-2.42 0,-1.307 1.011,-2.379 2.246,-2.379 C -1,-2.379 0,-1.307 0,0 m 0.388,0 c 0,-1.511 -1.184,-2.736 -2.634,-2.736 -1.44,0 -2.624,1.225 -2.624,2.736 0,1.532 1.184,2.777 2.624,2.777 1.45,0 2.634,-1.245 2.634,-2.777" />
      </g>
      <g
         transform="translate(354.0897,223.5237)"
         id="g190">
        <path
           inkscape:connector-curvature="0"
           id="path192"
           style="fill:#414142;fill-opacity:1;fill-rule:nonzero;stroke:none"
           d="m 0,0 -0.378,0 0,3.175 c 0,1.154 -0.623,1.848 -1.777,1.848 -1.061,0 -1.888,-0.786 -1.888,-1.848 l 0,-3.175 -0.378,0 0,5.258 0.378,0 0,-0.888 c 0.377,0.623 1.062,1.02 1.899,1.02 C -0.797,5.39 0,4.543 0,3.175 L 0,0 z" />
      </g>
      <g
         transform="translate(359.9001,226.5356)"
         id="g194">
        <path
           inkscape:connector-curvature="0"
           id="path196"
           style="fill:#414142;fill-opacity:1;fill-rule:nonzero;stroke:none"
           d="M 0,0 C -0.184,1.133 -1.113,1.991 -2.215,1.991 -3.329,1.991 -4.247,1.133 -4.421,0 L 0,0 z m -4.461,-0.378 c 0.009,-1.368 1.031,-2.379 2.306,-2.379 1.236,0 1.797,0.685 2.053,1.379 l 0.398,0 c -0.367,-1.134 -1.215,-1.757 -2.451,-1.757 -1.5,0 -2.685,1.205 -2.685,2.737 0,1.531 1.174,2.777 2.625,2.777 1.572,0 2.644,-1.43 2.623,-2.757 l -4.869,0 z" />
      </g>
      <g
         transform="translate(378.9644,190.9824)"
         id="g198">
        <path
           inkscape:connector-curvature="0"
           id="path200"
           style="fill:#414142;fill-opacity:1;fill-rule:nonzero;stroke:none"
           d="m 0,0 -0.291,0 0,2.733 -0.015,0 L -1.508,0 l -0.329,0 -1.195,2.733 -0.007,0 0,-2.733 -0.299,0 0,3.424 0.322,0 1.343,-3.063 0.008,0 1.351,3.063 L 0,3.424 0,0 z m -3.84,3.424 0,-0.283 -1.1,0 0,-3.141 -0.291,0 0,3.141 -1.099,0 0,0.283 2.49,0 z" />
      </g>
    </g>
  </g>
  </svg>
</svg>