<svg xmlns="http://www.w3.org/2000/svg" viewBox="0 0 32 32" role="img" aria-hidden="true">
  <rect width="32" height="32" rx="8" fill="#ffffff"/>
  <svg x="5" y="5" width="22" height="22" viewBox="0 0 136 136" preserveAspectRatio="xMidYMid meet">
    <path fill="#fff" d="M0 0h136v136H0z"/><path fill="#111" d="M38.595.46a1.378 1.378 0 1 1 0 2.756 1.378 1.378 0 0 1 0-2.757Zm2.297 1.378a1.378 1.378 0 1 0 2.757 0 1.378 1.378 0 0 0-2.757 0m7.352 0a1.378 1.378 0 1 0 2.756 0 1.378 1.378 0 0 0-2.756 0m3.675 0a1.378 1.378 0 1 0 2.757 0 1.378 1.378 0 0 0-2.757 0m11.028 0a1.378 1.378 0 1 0 2.756 0 1.378 1.378 0 0 0-2.756 0m7.351 0a1.378 1.378 0 1 0 2.756 0 1.378 1.378 0 0 0-2.756 0m7.351 0a1.378 1.378 0 1 0 2.757 0 1.378 1.378 0 0 0-2.757 0m3.676 0a1.378 1.378 0 1 0 2.757 0 1.378 1.378 0 0 0-2.757 0m3.676 0a1.378 1.378 0 1 0 2.756 0 1.378 1.378 0 0 0-2.756 0m7.351 0a1.378 1.378 0 1 0 2.757 0 1.378 1.378 0 0 0-2.757 0m3.676 0a1.378 1.378 0 1 0 2.756 0 1.378 1.378 0 0 0-2.756 0m3.676 0a1.378 1.378 0 1 0 2.757 0 1.378 1.378 0 0 0-2.757 0m3.675 0a1.378 1.378 0 1 0 2.757 0 1.378 1.378 0 0 0-2.757 0M29.865 5.514a1.378 1.378 0 1 0 2.756 0 1.378 1.378 0 0 0-2.756 0m7.352 0a1.378 1.378 0 1 0 2.756 0 1.378 1.378 0 0 0-2.756 0m3.675 0a1.378 1.378 0 1 0 2.757 0 1.378 1.378 0 0 0-2.757 0m11.027 0a1.378 1.378 0 1 0 2.757 0 1.378 1.378 0 0 0-2.757 0m7.352 0a1.378 1.378 0 1 0 2.756 0 1.378 1.378 0 0 0-2.756 0m3.676 0a1.378 1.378 0 1 0 2.756 0 1.378 1.378 0 0 0-2.756 0m7.351 0a1.378 1.378 0 1 0 2.756 0 1.378 1.378 0 0 0-2.756 0m7.351 0a1.378 1.378 0 1 0 2.757 0 1.378 1.378 0 0 0-2.757 0m7.352 0a1.378 1.378 0 1 0 2.756 0 1.378 1.378 0 0 0-2.756 0m18.378 0a1.378 1.378 0 1 0 2.757 0 1.378 1.378 0 0 0-2.757 0M33.541 9.189a1.378 1.378 0 1 0 2.756 0 1.378 1.378 0 0 0-2.756 0m7.351 0a1.378 1.378 0 1 0 2.757 0 1.378 1.378 0 0 0-2.757 0m7.352 0a1.378 1.378 0 1 0 2.756 0 1.378 1.378 0 0 0-2.756 0m7.351 0a1.378 1.378 0 1 0 2.757 0 1.378 1.378 0 0 0-2.757 0m14.703 0a1.378 1.378 0 1 0 2.756 0 1.378 1.378 0 0 0-2.756 0m3.676 0a1.378 1.378 0 1 0 2.756 0 1.378 1.378 0 0 0-2.756 0m3.675 0a1.378 1.378 0 1 0 2.757 0 1.378 1.378 0 0 0-2.757 0m3.676 0a1.378 1.378 0 1 0 2.757 0 1.378 1.378 0 0 0-2.757 0m14.703 0a1.378 1.378 0 1 0 2.756 0 1.378 1.378 0 0 0-2.756 0m7.351 0a1.378 1.378 0 1 0 2.757 0 1.378 1.378 0 0 0-2.757 0m-69.838 3.676a1.378 1.378 0 1 0 2.756 0 1.378 1.378 0 0 0-2.756 0m7.351 0a1.378 1.378 0 1 0 2.757 0 1.378 1.378 0 0 0-2.757 0m11.027 0a1.378 1.378 0 1 0 2.757 0 1.378 1.378 0 0 0-2.757 0m7.352 0a1.378 1.378 0 1 0 2.756 0 1.378 1.378 0 0 0-2.756 0m7.351 0a1.378 1.378 0 1 0 2.757 0 1.378 1.378 0 0 0-2.757 0m11.027 0a1.378 1.378 0 1 0 2.757 0 1.378 1.378 0 0 0-2.757 0m7.352 0a1.378 1.378 0 1 0 2.756 0 1.378 1.378 0 0 0-2.756 0m3.675 0a1.378 1.378 0 1 0 2.757 0 1.378 1.378 0 0 0-2.757 0m3.676 0a1.378 1.378 0 1 0 2.757 0 1.378 1.378 0 0 0-2.757 0m7.352 0a1.378 1.378 0 1 0 2.757 0 1.378 1.378 0 0 0-2.757 0m3.675 0a1.378 1.378 0 1 0 2.757 0 1.378 1.378 0 0 0-2.757 0m-62.487 3.676a1.378 1.378 0 1 0 2.757 0 1.378 1.378 0 0 0-2.757 0m3.676 0a1.378 1.378 0 1 0 2.756 0 1.378 1.378 0 0 0-2.756 0m3.676 0a1.378 1.378 0 1 0 2.756 0 1.378 1.378 0 0 0-2.756 0m3.675 0a1.378 1.378 0 1 0 2.757 0 1.378 1.378 0 0 0-2.757 0m7.352 0a1.378 1.378 0 1 0 2.756 0 1.378 1.378 0 0 0-2.756 0m7.351 0a1.378 1.378 0 1 0 2.757 0 1.378 1.378 0 0 0-2.757 0m3.676 0a1.378 1.378 0 1 0 2.756 0 1.378 1.378 0 0 0-2.756 0m3.676 0a1.378 1.378 0 1 0 2.756 0 1.378 1.378 0 0 0-2.756 0m7.351 0a1.378 1.378 0 1 0 2.757 0 1.378 1.378 0 0 0-2.757 0m3.676 0a1.378 1.378 0 1 0 2.756 0 1.378 1.378 0 0 0-2.756 0m3.675 0a1.378 1.378 0 1 0 2.757 0 1.378 1.378 0 0 0-2.757 0m3.676 0a1.378 1.378 0 1 0 2.757 0 1.378 1.378 0 0 0-2.757 0m7.352 0a1.378 1.378 0 1 0 2.757 0 1.378 1.378 0 0 0-2.757 0m-69.839 3.675a1.378 1.378 0 1 0 2.756 0 1.378 1.378 0 0 0-2.756 0m3.676 0a1.378 1.378 0 1 0 2.756 0 1.378 1.378 0 0 0-2.756 0m22.054 0a1.378 1.378 0 1 0 2.757 0 1.378 1.378 0 0 0-2.757 0m3.676 0a1.378 1.378 0 1 0 2.756 0 1.378 1.378 0 0 0-2.756 0m3.676 0a1.378 1.378 0 1 0 2.756 0 1.378 1.378 0 0 0-2.756 0m3.675 0a1.378 1.378 0 1 0 2.757 0 1.378 1.378 0 0 0-2.757 0m3.676 0a1.378 1.378 0 1 0 2.756 0 1.378 1.378 0 0 0-2.756 0m11.027 0a1.378 1.378 0 1 0 2.757 0 1.378 1.378 0 0 0-2.757 0m7.352 0a1.378 1.378 0 1 0 2.756 0 1.378 1.378 0 0 0-2.757 0Zm7.351 0a1.378 1.378 0 1 0 2.756 0 1.378 1.378 0 0 0-2.756 0m7.351 0a1.378 1.378 0 1 0 2.757 0 1.378 1.378 0 0 0-2.757 0m-73.514 3.676a1.378 1.378 0 1 0 2.756 0 1.378 1.378 0 0 0-2.756 0m7.352 0a1.378 1.378 0 1 0 2.756 0 1.378 1.378 0 0 0-2.756 0m7.351 0a1.378 1.378 0 1 0 2.756 0 1.378 1.378 0 0 0-2.756 0m7.351 0a1.378 1.378 0 1 0 2.757 0 1.378 1.378 0 0 0-2.757 0m7.352 0a1.378 1.378 0 1 0 2.756 0 1.378 1.378 0 0 0-2.756 0m7.351 0a1.378 1.378 0 1 0 2.757 0 1.378 1.378 0 0 0-2.757 0m7.352 0a1.378 1.378 0 1 0 2.756 0 1.378 1.378 0 0 0-2.756 0m7.351 0a1.378 1.378 0 1 0 2.757 0 1.378 1.378 0 0 0-2.757 0m7.352 0a1.378 1.378 0 1 0 2.756 0 1.378 1.378 0 0 0-2.757 0Zm7.351 0a1.378 1.378 0 1 0 2.756 0 1.378 1.378 0 0 0-2.756 0m7.351 0a1.378 1.378 0 1 0 2.757 0 1.378 1.378 0 0 0-2.757 0m-73.514 3.676a1.378 1.378 0 1 0 2.756 0 1.378 1.378 0 0 0-2.756 0m11.027 0a1.378 1.378 0 1 0 2.757 0 1.378 1.378 0 0 0-2.757 0m3.676 0a1.378 1.378 0 1 0 2.756 0 1.378 1.378 0 0 0-2.756 0m7.351 0a1.378 1.378 0 1 0 2.757 0 1.378 1.378 0 0 0-2.757 0m7.352 0a1.378 1.378 0 1 0 2.756 0 1.378 1.378 0 0 0-2.756 0m3.676 0a1.378 1.378 0 1 0 2.756 0 1.378 1.378 0 0 0-2.756 0m3.675 0a1.378 1.378 0 1 0 2.757 0 1.378 1.378 0 0 0-2.757 0m3.676 0a1.378 1.378 0 1 0 2.756 0 1.378 1.378 0 0 0-2.756 0m7.351 0a1.378 1.378 0 1 0 2.757 0 1.378 1.378 0 0 0-2.757 0m7.352 0a1.378 1.378 0 1 0 2.756 0 1.378 1.378 0 0 0-2.756 0m11.027 0a1.378 1.378 0 1 0 2.756 0 1.378 1.378 0 0 0-2.756 0m-80.866 3.675a1.378 1.378 0 1 0 2.757 0 1.378 1.378 0 0 0-2.757 0m3.676 0a1.378 1.378 0 1 0 2.756 0 1.378 1.378 0 0 0-2.756 0m3.676 0a1.378 1.378 0 1 0 2.756 0 1.378 1.378 0 0 0-2.756 0m3.675 0a1.378 1.378 0 1 0 2.757 0 1.378 1.378 0 0 0-2.757 0m14.703 0a1.378 1.378 0 1 0 2.757 0 1.378 1.378 0 0 0-2.757 0m14.703 0a1.378 1.378 0 1 0 2.757 0 1.378 1.378 0 0 0-2.757 0m11.027 0a1.378 1.378 0 1 0 2.757 0 1.378 1.378 0 0 0-2.757 0m25.73 0a1.378 1.378 0 1 0 2.757 0 1.378 1.378 0 0 0-2.757 0m3.676 0a1.378 1.378 0 1 0 2.756.001 1.378 1.378 0 0 0-2.756 0Zm3.676 0a1.378 1.378 0 1 0 2.757 0 1.378 1.378 0 0 0-2.757 0m3.675 0a1.378 1.378 0 1 0 2.757 0 1.378 1.378 0 0 0-2.757 0m7.352 0a1.378 1.378 0 1 0 2.756.001 1.378 1.378 0 0 0-2.756 0Zm3.676 0a1.378 1.378 0 1 0 2.756.001 1.378 1.378 0 0 0-2.756 0Zm14.702 0a1.378 1.378 0 1 0 2.757 0 1.378 1.378 0 0 0-2.757 0M.459 34.92a1.378 1.378 0 1 0 2.757 0 1.378 1.378 0 0 0-2.757 0m3.676 0a1.378 1.378 0 1 0 2.756 0 1.378 1.378 0 0 0-2.756 0m3.676 0a1.378 1.378 0 1 0 2.756 0 1.378 1.378 0 0 0-2.756 0m3.676 0a1.378 1.378 0 1 0 2.756 0 1.378 1.378 0 0 0-2.756 0m22.054 0a1.378 1.378 0 1 0 2.756 0 1.378 1.378 0 0 0-2.756 0m3.676 0a1.378 1.378 0 1 0 2.756 0 1.378 1.378 0 0 0-2.756 0m14.702 0a1.378 1.378 0 1 0 2.757 0 1.378 1.378 0 0 0-2.757 0m14.703 0a1.378 1.378 0 1 0 2.757 0 1.378 1.378 0 0 0-2.757 0m11.027 0a1.378 1.378 0 1 0 2.757 0 1.378 1.378 0 0 0-2.757 0m3.676 0a1.378 1.378 0 1 0 2.756 0 1.378 1.378 0 0 0-2.756 0m14.703 0a1.378 1.378 0 1 0 2.756 0 1.378 1.378 0 0 0-2.756 0m3.676 0a1.378 1.378 0 1 0 2.756 0 1.378 1.378 0 0 0-2.756 0m7.351 0a1.378 1.378 0 1 0 2.756 0 1.378 1.378 0 0 0-2.756 0m7.352 0a1.378 1.378 0 1 0 2.756 0 1.378 1.378 0 0 0-2.756 0m3.675 0a1.378 1.378 0 1 0 2.757 0 1.378 1.378 0 0 0-2.757 0m3.676 0a1.378 1.378 0 1 0 2.756 0 1.378 1.378 0 0 0-2.756 0m3.676 0a1.378 1.378 0 1 0 2.756 0 1.378 1.378 0 0 0-2.756 0M.459 38.595a1.378 1.378 0 1 0 2.757 0 1.378 1.378 0 0 0-2.757 0m18.379 0a1.378 1.378 0 1 0 2.756 0 1.378 1.378 0 0 0-2.756 0m3.676 0a1.378 1.378 0 1 0 2.756 0 1.378 1.378 0 0 0-2.756 0m14.703 0a1.378 1.378 0 1 0 2.756 0 1.378 1.378 0 0 0-2.756 0m3.675 0a1.378 1.378 0 1 0 2.757 0 1.378 1.378 0 0 0-2.757 0m3.676 0a1.378 1.378 0 1 0 2.756 0 1.378 1.378 0 0 0-2.756 0m3.676 0a1.378 1.378 0 1 0 2.756 0 1.378 1.378 0 0 0-2.756 0m18.378 0a1.378 1.378 0 1 0 2.757 0 1.378 1.378 0 0 0-2.757 0m11.027 0a1.378 1.378 0 1 0 2.757 0 1.378 1.378 0 0 0-2.757 0m14.703 0a1.378 1.378 0 1 0 2.757 0 1.378 1.378 0 0 0-2.757 0m3.676 0a1.378 1.378 0 1 0 2.756 0 1.378 1.378 0 0 0-2.756 0m3.676 0a1.378 1.378 0 1 0 2.757 0 1.378 1.378 0 0 0-2.757 0m7.351 0a1.378 1.378 0 1 0 2.756 0 1.378 1.378 0 0 0-2.756 0m7.352 0a1.378 1.378 0 1 0 2.756 0 1.378 1.378 0 0 0-2.756 0m3.675 0a1.378 1.378 0 1 0 2.757 0 1.378 1.378 0 0 0-2.757 0m3.676 0a1.378 1.378 0 1 0 2.756 0 1.378 1.378 0 0 0-2.756 0m3.676 0a1.378 1.378 0 1 0 2.756 0 1.378 1.378 0 0 0-2.756 0M4.135 42.271a1.378 1.378 0 1 0 2.757 0 1.378 1.378 0 0 0-2.757 0m3.676 0a1.378 1.378 0 1 0 2.756 0 1.378 1.378 0 0 0-2.756 0m3.676 0a1.378 1.378 0 1 0 2.756 0 1.378 1.378 0 0 0-2.756 0m3.675 0a1.378 1.378 0 1 0 2.757 0 1.378 1.378 0 0 0-2.757 0m3.676 0a1.378 1.378 0 1 0 2.756 0 1.378 1.378 0 0 0-2.756 0m7.351 0a1.378 1.378 0 1 0 2.757 0 1.378 1.378 0 0 0-2.757 0m3.676 0a1.378 1.378 0 1 0 2.756 0 1.378 1.378 0 0 0-2.756 0m14.703 0a1.378 1.378 0 1 0 2.756 0 1.378 1.378 0 0 0-2.756 0m18.379 0a1.378 1.378 0 1 0 2.756 0 1.378 1.378 0 0 0-2.756 0m3.675 0a1.378 1.378 0 1 0 2.757 0 1.378 1.378 0 0 0-2.757 0m7.352 0a1.378 1.378 0 1 0 2.756 0 1.378 1.378 0 0 0-2.756 0m11.027 0a1.378 1.378 0 1 0 2.756 0 1.378 1.378 0 0 0-2.756 0m11.027 0a1.378 1.378 0 1 0 2.756 0 1.378 1.378 0 0 0-2.756 0m3.676 0a1.378 1.378 0 1 0 2.757 0 1.378 1.378 0 0 0-2.757 0m3.675 0a1.378 1.378 0 1 0 2.757 0 1.378 1.378 0 0 0-2.757 0m3.676 0a1.378 1.378 0 1 0 2.756 0 1.378 1.378 0 0 0-2.756 0m7.352 0a1.378 1.378 0 1 0 2.756 0 1.378 1.378 0 0 0-2.756 0m3.675 0a1.378 1.378 0 1 0 2.757 0 1.378 1.378 0 0 0-2.757 0m3.676 0a1.378 1.378 0 1 0 2.756 0 1.378 1.378 0 0 0-2.756 0m3.676 0a1.378 1.378 0 1 0 2.756 0 1.378 1.378 0 0 0-2.756 0m3.675 0a1.378 1.378 0 1 0 2.757 0 1.378 1.378 0 0 0-2.757 0M18.838 45.946a1.378 1.378 0 1 0 2.756 0 1.378 1.378 0 0 0-2.756 0m3.676 0a1.378 1.378 0 1 0 2.756 0 1.378 1.378 0 0 0-2.756 0m3.675 0a1.378 1.378 0 1 0 2.757 0 1.378 1.378 0 0 0-2.757 0m3.676 0a1.378 1.378 0 1 0 2.756 0 1.378 1.378 0 0 0-2.756 0m3.676 0a1.378 1.378 0 1 0 2.756 0 1.378 1.378 0 0 0-2.756 0m3.676 0a1.378 1.378 0 1 0 2.756 0 1.378 1.378 0 0 0-2.756 0m14.702 0a1.378 1.378 0 1 0 2.757 0 1.378 1.378 0 0 0-2.757 0m3.676 0a1.378 1.378 0 1 0 2.757 0 1.378 1.378 0 0 0-2.757 0m3.676 0a1.378 1.378 0 1 0 2.756 0 1.378 1.378 0 0 0-2.756 0m7.351 0a1.378 1.378 0 1 0 2.757 0 1.378 1.378 0 0 0-2.757 0m3.676 0a1.378 1.378 0 1 0 2.756 0 1.378 1.378 0 0 0-2.756 0m7.351 0a1.378 1.378 0 1 0 2.757 0 1.378 1.378 0 0 0-2.757 0m11.028 0a1.378 1.378 0 1 0 2.756 0 1.378 1.378 0 0 0-2.757 0Zm11.027 0a1.378 1.378 0 1 0 2.757 0 1.378 1.378 0 0 0-2.757 0m3.675 0a1.378 1.378 0 1 0 2.757 0 1.378 1.378 0 0 0-2.757 0m3.676 0a1.378 1.378 0 1 0 2.756 0 1.378 1.378 0 0 0-2.756 0m3.676 0a1.378 1.378 0 1 0 2.756 0 1.378 1.378 0 0 0-2.756 0m3.676 0a1.378 1.378 0 1 0 2.756 0 1.378 1.378 0 0 0-2.756 0m7.351 0a1.378 1.378 0 1 0 2.756 0 1.378 1.378 0 0 0-2.756 0m3.676 0a1.378 1.378 0 1 0 2.756 0 1.378 1.378 0 0 0-2.756 0m3.675 0a1.378 1.378 0 1 0 2.757 0 1.378 1.378 0 0 0-2.757 0M11.487 49.622a1.378 1.378 0 1 0 2.756 0 1.378 1.378 0 0 0-2.756 0m3.675 0a1.378 1.378 0 1 0 2.757 0 1.378 1.378 0 0 0-2.757 0m3.676 0a1.378 1.378 0 1 0 2.756 0 1.378 1.378 0 0 0-2.756 0m7.351 0a1.378 1.378 0 1 0 2.757 0 1.378 1.378 0 0 0-2.757 0m3.676 0a1.378 1.378 0 1 0 2.756 0 1.378 1.378 0 0 0-2.756 0m3.676 0a1.378 1.378 0 1 0 2.756 0 1.378 1.378 0 0 0-2.756 0m7.351 0a1.378 1.378 0 1 0 2.757 0 1.378 1.378 0 0 0-2.757 0m3.676 0a1.378 1.378 0 1 0 2.756 0 1.378 1.378 0 0 0-2.756 0m44.109 0a1.378 1.378 0 1 0 2.756 0 1.378 1.378 0 0 0-2.757 0Zm11.027 0a1.378 1.378 0 1 0 2.757 0 1.378 1.378 0 0 0-2.757 0m7.351 0a1.378 1.378 0 1 0 2.756 0 1.378 1.378 0 0 0-2.756 0m7.352 0a1.378 1.378 0 1 0 2.756 0 1.378 1.378 0 0 0-2.756 0m3.675 0a1.378 1.378 0 1 0 2.757 0 1.378 1.378 0 0 0-2.757 0m7.352 0a1.378 1.378 0 1 0 2.756 0 1.378 1.378 0 0 0-2.756 0M.459 53.298a1.378 1.378 0 1 0 2.757 0 1.378 1.378 0 0 0-2.757 0m14.703 0a1.378 1.378 0 1 0 2.757 0 1.378 1.378 0 0 0-2.757 0m7.352 0a1.378 1.378 0 1 0 2.756 0 1.378 1.378 0 0 0-2.756 0m22.054 0a1.378 1.378 0 1 0 2.756 0 1.378 1.378 0 0 0-2.756 0m44.109 0a1.378 1.378 0 1 0 2.756 0 1.378 1.378 0 0 0-2.757 0Zm3.675 0a1.378 1.378 0 1 0 2.757 0 1.378 1.378 0 0 0-2.757 0m3.676 0a1.378 1.378 0 1 0 2.756 0 1.378 1.378 0 0 0-2.756 0m3.676 0a1.378 1.378 0 1 0 2.757 0 1.378 1.378 0 0 0-2.757 0m11.027 0a1.378 1.378 0 1 0 2.756 0 1.378 1.378 0 0 0-2.756 0m3.676 0a1.378 1.378 0 1 0 2.756 0 1.378 1.378 0 0 0-2.756 0m3.675 0a1.378 1.378 0 1 0 2.757 0 1.378 1.378 0 0 0-2.757 0m3.676 0a1.378 1.378 0 1 0 2.756 0 1.378 1.378 0 0 0-2.756 0m3.676 0a1.378 1.378 0 1 0 2.756 0 1.378 1.378 0 0 0-2.756 0M7.811 56.973a1.378 1.378 0 1 0 2.756 0 1.378 1.378 0 0 0-2.756 0m7.351 0a1.378 1.378 0 1 0 2.757 0 1.378 1.378 0 0 0-2.757 0m3.676 0a1.378 1.378 0 1 0 2.756 0 1.378 1.378 0 0 0-2.756 0m14.703 0a1.378 1.378 0 1 0 2.756 0 1.378 1.378 0 0 0-2.756 0m3.676 0a1.378 1.378 0 1 0 2.756 0 1.378 1.378 0 0 0-2.756 0m69.838 0a1.378 1.378 0 1 0 2.756.001 1.378 1.378 0 0 0-2.756 0Zm11.027 0a1.378 1.378 0 1 0 2.757 0 1.378 1.378 0 0 0-2.757 0m7.352 0a1.378 1.378 0 1 0 2.756.001 1.378 1.378 0 0 0-2.756 0ZM4.135 60.65a1.378 1.378 0 1 0 2.757 0 1.378 1.378 0 0 0-2.757 0m11.027 0a1.378 1.378 0 1 0 2.757 0 1.378 1.378 0 0 0-2.757 0m3.676 0a1.378 1.378 0 1 0 2.756 0 1.378 1.378 0 0 0-2.756 0m3.676 0a1.378 1.378 0 1 0 2.756 0 1.378 1.378 0 0 0-2.756 0m3.675 0a1.378 1.378 0 1 0 2.757 0 1.378 1.378 0 0 0-2.757 0m7.352 0a1.378 1.378 0 1 0 2.756 0 1.378 1.378 0 0 0-2.756 0m69.838 0a1.378 1.378 0 1 0 2.757 0 1.378 1.378 0 0 0-2.757 0m3.676 0a1.378 1.378 0 1 0 2.756 0 1.378 1.378 0 0 0-2.756 0m3.676 0a1.378 1.378 0 1 0 2.756 0 1.378 1.378 0 0 0-2.756 0m3.676 0a1.378 1.378 0 1 0 2.756 0 1.378 1.378 0 0 0-2.756 0m7.351 0a1.378 1.378 0 1 0 2.756 0 1.378 1.378 0 0 0-2.756 0m3.676 0a1.378 1.378 0 1 0 2.756 0 1.378 1.378 0 0 0-2.756 0m3.675 0a1.378 1.378 0 1 0 2.757 0 1.378 1.378 0 0 0-2.757 0m3.676 0a1.378 1.378 0 1 0 2.756 0 1.378 1.378 0 0 0-2.756 0M4.135 64.325a1.378 1.378 0 1 0 2.757 0 1.378 1.378 0 0 0-2.757 0m3.676 0a1.378 1.378 0 1 0 2.756 0 1.378 1.378 0 0 0-2.756 0m7.351 0a1.378 1.378 0 1 0 2.757 0 1.378 1.378 0 0 0-2.757 0m3.676 0a1.378 1.378 0 1 0 2.756 0 1.378 1.378 0 0 0-2.756 0m7.351 0a1.378 1.378 0 1 0 2.757 0 1.378 1.378 0 0 0-2.757 0m14.703 0a1.378 1.378 0 1 0 2.757 0 1.378 1.378 0 0 0-2.757 0m3.676 0a1.378 1.378 0 1 0 2.756 0 1.378 1.378 0 0 0-2.756 0m47.784 0a1.378 1.378 0 1 0 2.757 0 1.378 1.378 0 0 0-2.757 0m3.676 0a1.378 1.378 0 1 0 2.756 0 1.378 1.378 0 0 0-2.756 0m3.676 0a1.378 1.378 0 1 0 2.757 0 1.378 1.378 0 0 0-2.757 0m3.675 0a1.378 1.378 0 1 0 2.757 0 1.378 1.378 0 0 0-2.757 0m14.703 0a1.378 1.378 0 1 0 2.757 0 1.378 1.378 0 0 0-2.757 0m3.676 0a1.378 1.378 0 1 0 2.756 0 1.378 1.378 0 0 0-2.756 0M.459 68a1.378 1.378 0 1 0 2.757 0 1.378 1.378 0 0 0-2.757 0m3.676 0a1.378 1.378 0 1 0 2.756 0 1.378 1.378 0 0 0-2.756 0m18.379 0a1.378 1.378 0 1 0 2.756 0 1.378 1.378 0 0 0-2.756 0m3.675 0a1.378 1.378 0 1 0 2.757 0 1.378 1.378 0 0 0-2.757 0m3.676 0a1.378 1.378 0 1 0 2.756 0 1.378 1.378 0 0 0-2.756 0m58.812 0a1.378 1.378 0 1 0 2.756 0 1.378 1.378 0 0 0-2.757 0Zm3.675 0a1.378 1.378 0 1 0 2.756 0 1.378 1.378 0 0 0-2.756 0m7.352 0a1.378 1.378 0 1 0 2.756 0 1.378 1.378 0 0 0-2.756 0m3.675 0a1.378 1.378 0 1 0 2.757 0 1.378 1.378 0 0 0-2.757 0m7.352 0a1.378 1.378 0 1 0 2.756 0 1.378 1.378 0 0 0-2.756 0m3.676 0a1.378 1.378 0 1 0 2.756 0 1.378 1.378 0 0 0-2.756 0m11.027 0a1.378 1.378 0 1 0 2.756 0 1.378 1.378 0 0 0-2.756 0M7.811 71.676a1.378 1.378 0 1 0 2.756 0 1.378 1.378 0 0 0-2.756 0m22.054 0a1.378 1.378 0 1 0 2.756 0 1.378 1.378 0 0 0-2.756 0m3.676 0a1.378 1.378 0 1 0 2.756 0 1.378 1.378 0 0 0-2.756 0m77.19 0a1.378 1.378 0 1 0 2.756 0 1.378 1.378 0 0 0-2.756 0m7.351 0a1.378 1.378 0 1 0 2.757 0 1.378 1.378 0 0 0-2.757 0m7.352 0a1.378 1.378 0 1 0 2.756 0 1.378 1.378 0 0 0-2.756 0M7.811 75.352a1.378 1.378 0 1 0 2.756 0 1.378 1.378 0 0 0-2.756 0m3.676 0a1.378 1.378 0 1 0 2.756 0 1.378 1.378 0 0 0-2.756 0m7.351 0a1.378 1.378 0 1 0 2.756 0 1.378 1.378 0 0 0-2.756 0m3.676 0a1.378 1.378 0 1 0 2.756 0 1.378 1.378 0 0 0-2.756 0m7.351 0a1.378 1.378 0 1 0 2.756 0 1.378 1.378 0 0 0-2.756 0m11.027 0a1.378 1.378 0 1 0 2.757 0 1.378 1.378 0 0 0-2.757 0m3.676 0a1.378 1.378 0 1 0 2.756 0 1.378 1.378 0 0 0-2.756 0m44.109 0a1.378 1.378 0 1 0 2.756 0 1.378 1.378 0 0 0-2.757 0Zm11.027 0a1.378 1.378 0 1 0 2.757 0 1.378 1.378 0 0 0-2.757 0m7.351 0a1.378 1.378 0 1 0 2.756 0 1.378 1.378 0 0 0-2.756 0m3.676 0a1.378 1.378 0 1 0 2.756 0 1.378 1.378 0 0 0-2.756 0m14.703 0a1.378 1.378 0 1 0 2.756 0 1.378 1.378 0 0 0-2.756 0M7.811 79.028a1.378 1.378 0 1 0 2.756 0 1.378 1.378 0 0 0-2.756 0m3.676 0a1.378 1.378 0 1 0 2.756 0 1.378 1.378 0 0 0-2.756 0m77.19 0a1.378 1.378 0 1 0 2.756 0 1.378 1.378 0 0 0-2.757 0Zm7.351 0a1.378 1.378 0 1 0 2.756 0 1.378 1.378 0 0 0-2.756 0m3.676 0a1.378 1.378 0 1 0 2.757 0 1.378 1.378 0 0 0-2.757 0m11.027 0a1.378 1.378 0 1 0 2.756 0 1.378 1.378 0 0 0-2.756 0m7.351 0a1.378 1.378 0 1 0 2.757 0 1.378 1.378 0 0 0-2.757 0m7.352 0a1.378 1.378 0 1 0 2.756 0 1.378 1.378 0 0 0-2.756 0M.459 82.703a1.378 1.378 0 1 0 2.757 0 1.378 1.378 0 0 0-2.757 0m7.352 0a1.378 1.378 0 1 0 2.756 0 1.378 1.378 0 0 0-2.756 0m3.676 0a1.378 1.378 0 1 0 2.756 0 1.378 1.378 0 0 0-2.756 0m7.351 0a1.378 1.378 0 1 0 2.756 0 1.378 1.378 0 0 0-2.756 0m3.676 0a1.378 1.378 0 1 0 2.756 0 1.378 1.378 0 0 0-2.756 0m3.675 0a1.378 1.378 0 1 0 2.757 0 1.378 1.378 0 0 0-2.757 0m11.028 0a1.378 1.378 0 1 0 2.756 0 1.378 1.378 0 0 0-2.756 0m55.135 0a1.378 1.378 0 1 0 2.757 0 1.378 1.378 0 0 0-2.757 0m3.676 0a1.378 1.378 0 1 0 2.756.001 1.378 1.378 0 0 0-2.756 0Zm3.676 0a1.378 1.378 0 1 0 2.757 0 1.378 1.378 0 0 0-2.757 0m3.675 0a1.378 1.378 0 1 0 2.757 0 1.378 1.378 0 0 0-2.757 0m3.676 0a1.378 1.378 0 1 0 2.756.001 1.378 1.378 0 0 0-2.756 0Zm18.379 0a1.378 1.378 0 1 0 2.756.001 1.378 1.378 0 0 0-2.756 0ZM.459 86.38a1.378 1.378 0 1 0 2.757 0 1.378 1.378 0 0 0-2.757 0m14.703 0a1.378 1.378 0 1 0 2.757 0 1.378 1.378 0 0 0-2.757 0m3.676 0a1.378 1.378 0 1 0 2.756 0 1.378 1.378 0 0 0-2.756 0m11.027 0a1.378 1.378 0 1 0 2.756 0 1.378 1.378 0 0 0-2.756 0m7.352 0a1.378 1.378 0 1 0 2.756 0 1.378 1.378 0 0 0-2.756 0m3.675 0a1.378 1.378 0 1 0 2.757 0 1.378 1.378 0 0 0-2.757 0m51.46 0a1.378 1.378 0 1 0 2.757 0 1.378 1.378 0 0 0-2.757 0m11.027 0a1.378 1.378 0 1 0 2.757 0 1.378 1.378 0 0 0-2.757 0m7.352 0a1.378 1.378 0 1 0 2.756 0 1.378 1.378 0 0 0-2.756 0m3.676 0a1.378 1.378 0 1 0 2.756 0 1.378 1.378 0 0 0-2.756 0m11.027 0a1.378 1.378 0 1 0 2.756 0 1.378 1.378 0 0 0-2.756 0m3.675 0a1.378 1.378 0 1 0 2.757 0 1.378 1.378 0 0 0-2.757 0m3.676 0a1.378 1.378 0 1 0 2.756 0 1.378 1.378 0 0 0-2.756 0M18.838 90.055a1.378 1.378 0 1 0 2.756 0 1.378 1.378 0 0 0-2.756 0m3.676 0a1.378 1.378 0 1 0 2.756 0 1.378 1.378 0 0 0-2.756 0m7.351 0a1.378 1.378 0 1 0 2.756 0 1.378 1.378 0 0 0-2.756 0m11.027 0a1.378 1.378 0 1 0 2.757 0 1.378 1.378 0 0 0-2.757 0m7.352 0a1.378 1.378 0 1 0 2.756 0 1.378 1.378 0 0 0-2.756 0m3.675 0a1.378 1.378 0 1 0 2.757 0 1.378 1.378 0 0 0-2.757 0m3.676 0a1.378 1.378 0 1 0 2.757 0 1.378 1.378 0 0 0-2.757 0m7.352 0a1.378 1.378 0 1 0 2.756 0 1.378 1.378 0 0 0-2.756 0m3.675 0a1.378 1.378 0 1 0 2.757 0 1.378 1.378 0 0 0-2.757 0m11.027 0a1.378 1.378 0 1 0 2.757 0 1.378 1.378 0 0 0-2.757 0m7.352 0a1.378 1.378 0 1 0 2.756 0 1.378 1.378 0 0 0-2.756 0m3.675 0a1.378 1.378 0 1 0 2.757 0 1.378 1.378 0 0 0-2.757 0m3.676 0a1.378 1.378 0 1 0 2.757 0 1.378 1.378 0 0 0-2.757 0m7.352 0a1.378 1.378 0 1 0 2.757 0 1.378 1.378 0 0 0-2.757 0m3.675 0a1.378 1.378 0 1 0 2.757 0 1.378 1.378 0 0 0-2.757 0m7.352 0a1.378 1.378 0 1 0 2.756 0 1.378 1.378 0 0 0-2.756 0m3.676 0a1.378 1.378 0 1 0 2.756 0 1.378 1.378 0 0 0-2.756 0m11.027 0a1.378 1.378 0 1 0 2.756 0 1.378 1.378 0 0 0-2.756 0m7.351 0a1.378 1.378 0 1 0 2.756 0 1.378 1.378 0 0 0-2.756 0M.459 93.73a1.378 1.378 0 1 0 2.757 0 1.378 1.378 0 0 0-2.757 0m3.676 0a1.378 1.378 0 1 0 2.757 0 1.378 1.378 0 0 0-2.757 0m14.703 0a1.378 1.378 0 1 0 2.756 0 1.378 1.378 0 0 0-2.756 0m7.351 0a1.378 1.378 0 1 0 2.757 0 1.378 1.378 0 0 0-2.757 0m3.676 0a1.378 1.378 0 1 0 2.756 0 1.378 1.378 0 0 0-2.756 0m3.676 0a1.378 1.378 0 1 0 2.756 0 1.378 1.378 0 0 0-2.756 0m3.676 0a1.378 1.378 0 1 0 2.756 0 1.378 1.378 0 0 0-2.756 0m7.351 0a1.378 1.378 0 1 0 2.756 0 1.378 1.378 0 0 0-2.756 0m3.676 0a1.378 1.378 0 1 0 2.756 0 1.378 1.378 0 0 0-2.756 0m3.675 0a1.378 1.378 0 1 0 2.757 0 1.378 1.378 0 0 0-2.757 0m22.055 0a1.378 1.378 0 1 0 2.756 0 1.378 1.378 0 0 0-2.756 0m3.675 0a1.378 1.378 0 1 0 2.757 0 1.378 1.378 0 0 0-2.757 0m14.703 0a1.378 1.378 0 1 0 2.757 0 1.378 1.378 0 0 0-2.757 0m3.676 0a1.378 1.378 0 1 0 2.756 0 1.378 1.378 0 0 0-2.756 0m3.676 0a1.378 1.378 0 1 0 2.757 0 1.378 1.378 0 0 0-2.757 0m3.675 0a1.378 1.378 0 1 0 2.757 0 1.378 1.378 0 0 0-2.757 0m3.676 0a1.378 1.378 0 1 0 2.756 0 1.378 1.378 0 0 0-2.756 0m7.352 0a1.378 1.378 0 1 0 2.756 0 1.378 1.378 0 0 0-2.756 0m3.675 0a1.378 1.378 0 1 0 2.757 0 1.378 1.378 0 0 0-2.757 0m-102.92 3.675a1.378 1.378 0 1 0 2.757 0 1.378 1.378 0 0 0-2.757 0m3.676 0a1.378 1.378 0 1 0 2.756 0 1.378 1.378 0 0 0-2.756 0m3.676 0a1.378 1.378 0 1 0 2.756 0 1.378 1.378 0 0 0-2.756 0m3.675 0a1.378 1.378 0 1 0 2.757 0 1.378 1.378 0 0 0-2.757 0m11.028 0a1.378 1.378 0 1 0 2.756 0 1.378 1.378 0 0 0-2.756 0m18.378 0a1.378 1.378 0 1 0 2.757 0 1.378 1.378 0 0 0-2.757 0m11.027 0a1.378 1.378 0 1 0 2.757 0 1.378 1.378 0 0 0-2.757 0m7.352 0a1.378 1.378 0 1 0 2.756 0 1.378 1.378 0 0 0-2.756 0m3.675 0a1.378 1.378 0 1 0 2.757 0 1.378 1.378 0 0 0-2.757 0m18.379 0a1.378 1.378 0 1 0 2.756 0 1.378 1.378 0 0 0-2.756 0m3.676 0a1.378 1.378 0 1 0 2.757 0 1.378 1.378 0 0 0-2.757 0m3.675 0a1.378 1.378 0 1 0 2.757 0 1.378 1.378 0 0 0-2.757 0m3.676 0a1.378 1.378 0 1 0 2.756 0 1.378 1.378 0 0 0-2.756 0m-99.244 3.676a1.378 1.378 0 1 0 2.756 0 1.378 1.378 0 0 0-2.756 0m3.676 0a1.378 1.378 0 1 0 2.756 0 1.378 1.378 0 0 0-2.756 0m3.675 0a1.378 1.378 0 1 0 2.757 0 1.378 1.378 0 0 0-2.757 0m3.676 0a1.378 1.378 0 1 0 2.756 0 1.378 1.378 0 0 0-2.756 0m11.027 0a1.378 1.378 0 1 0 2.756 0 1.378 1.378 0 0 0-2.756 0m3.676 0a1.378 1.378 0 1 0 2.756 0 1.378 1.378 0 0 0-2.756 0m3.676 0a1.378 1.378 0 1 0 2.756 0 1.378 1.378 0 0 0-2.756 0m7.351 0a1.378 1.378 0 1 0 2.756 0 1.378 1.378 0 0 0-2.756 0m7.351 0a1.378 1.378 0 1 0 2.757 0 1.378 1.378 0 0 0-2.757 0m3.676 0a1.378 1.378 0 1 0 2.756 0 1.378 1.378 0 0 0-2.756 0m3.676 0a1.378 1.378 0 1 0 2.756 0 1.378 1.378 0 0 0-2.756 0m3.676 0a1.378 1.378 0 1 0 2.756 0 1.378 1.378 0 0 0-2.756 0m3.675 0a1.378 1.378 0 1 0 2.757 0 1.378 1.378 0 0 0-2.757 0m7.352 0a1.378 1.378 0 1 0 2.756 0 1.378 1.378 0 0 0-2.756 0m7.351 0a1.378 1.378 0 1 0 2.756 0 1.378 1.378 0 0 0-2.756 0m7.352 0a1.378 1.378 0 1 0 2.756 0 1.378 1.378 0 0 0-2.757 0Zm14.702 0a1.378 1.378 0 1 0 2.757 0 1.378 1.378 0 0 0-2.757 0m7.352 0a1.378 1.378 0 1 0 2.756 0 1.378 1.378 0 0 0-2.756 0m11.027 0a1.378 1.378 0 1 0 2.756 0 1.378 1.378 0 0 0-2.756 0m3.676 0a1.378 1.378 0 1 0 2.756 0 1.378 1.378 0 0 0-2.756 0m3.675 0a1.378 1.378 0 1 0 2.757 0 1.378 1.378 0 0 0-2.757 0m3.676 0a1.378 1.378 0 1 0 2.756 0 1.378 1.378 0 0 0-2.756 0M.459 104.758a1.378 1.378 0 1 0 2.757 0 1.378 1.378 0 0 0-2.757 0m3.676 0a1.378 1.378 0 1 0 2.756 0 1.378 1.378 0 0 0-2.756 0m7.352 0a1.378 1.378 0 1 0 2.756 0 1.378 1.378 0 0 0-2.756 0m3.675 0a1.378 1.378 0 1 0 2.757 0 1.378 1.378 0 0 0-2.757 0m7.352 0a1.378 1.378 0 1 0 2.756 0 1.378 1.378 0 0 0-2.756 0m11.027 0a1.378 1.378 0 1 0 2.756 0 1.378 1.378 0 0 0-2.756 0m3.676 0a1.378 1.378 0 1 0 2.756 0 1.378 1.378 0 0 0-2.756 0m7.351 0a1.378 1.378 0 1 0 2.756 0 1.378 1.378 0 0 0-2.756 0m3.676 0a1.378 1.378 0 1 0 2.756 0 1.378 1.378 0 0 0-2.756 0m3.675 0a1.378 1.378 0 1 0 2.757 0 1.378 1.378 0 0 0-2.757 0m3.676 0a1.378 1.378 0 1 0 2.756 0 1.378 1.378 0 0 0-2.756 0m3.676 0a1.378 1.378 0 1 0 2.756 0 1.378 1.378 0 0 0-2.756 0m3.676 0a1.378 1.378 0 1 0 2.756 0 1.378 1.378 0 0 0-2.756 0m3.675 0a1.378 1.378 0 1 0 2.757 0 1.378 1.378 0 0 0-2.757 0m3.676 0a1.378 1.378 0 1 0 2.756 0 1.378 1.378 0 0 0-2.756 0m7.351 0a1.378 1.378 0 1 0 2.757 0 1.378 1.378 0 0 0-2.757 0m7.352 0a1.378 1.378 0 1 0 2.756 0 1.378 1.378 0 0 0-2.756 0m18.378 0a1.378 1.378 0 1 0 2.757 0 1.378 1.378 0 0 0-2.757 0m3.676 0a1.378 1.378 0 1 0 2.756 0 1.378 1.378 0 0 0-2.756 0m3.676 0a1.378 1.378 0 1 0 2.756 0 1.378 1.378 0 0 0-2.756 0m3.676 0a1.378 1.378 0 1 0 2.756 0 1.378 1.378 0 0 0-2.756 0m3.675 0a1.378 1.378 0 1 0 2.757 0 1.378 1.378 0 0 0-2.757 0m3.676 0a1.378 1.378 0 1 0 2.756 0 1.378 1.378 0 0 0-2.756 0m3.676 0a1.378 1.378 0 1 0 2.756 0 1.378 1.378 0 0 0-2.756 0m3.675 0a1.378 1.378 0 1 0 2.757 0 1.378 1.378 0 0 0-2.757 0m-99.244 3.675a1.378 1.378 0 1 0 2.757.001 1.378 1.378 0 0 0-2.757-.001m7.352 0a1.378 1.378 0 1 0 2.756.001 1.378 1.378 0 0 0-2.756-.001m3.675 0a1.378 1.378 0 1 0 2.757.001 1.378 1.378 0 0 0-2.757-.001m11.027 0a1.378 1.378 0 1 0 2.757.001 1.378 1.378 0 0 0-2.757-.001m7.352 0a1.378 1.378 0 1 0 2.757.001 1.378 1.378 0 0 0-2.757-.001m3.676 0a1.378 1.378 0 1 0 2.756.001 1.378 1.378 0 0 0-2.756-.001m3.675 0a1.378 1.378 0 1 0 2.757.001 1.378 1.378 0 0 0-2.757-.001m3.676 0a1.378 1.378 0 1 0 2.757.001 1.378 1.378 0 0 0-2.757-.001m3.676 0a1.378 1.378 0 1 0 2.756.001 1.378 1.378 0 0 0-2.756-.001m3.675 0a1.378 1.378 0 1 0 2.757.001 1.378 1.378 0 0 0-2.757-.001m3.676 0a1.378 1.378 0 1 0 2.757.001 1.378 1.378 0 0 0-2.757-.001m3.676 0a1.378 1.378 0 1 0 2.757.001 1.378 1.378 0 0 0-2.757-.001m7.351 0a1.378 1.378 0 1 0 2.757.001 1.378 1.378 0 0 0-2.757-.001m7.352 0a1.379 1.379 0 1 0 2.757 0 1.379 1.379 0 0 0-2.757 0m3.675 0a1.378 1.378 0 1 0 2.757.001 1.378 1.378 0 0 0-2.757-.001m14.703 0a1.378 1.378 0 1 0 2.757.001 1.378 1.378 0 0 0-2.757-.001m3.676 0a1.378 1.378 0 1 0 2.757.001 1.378 1.378 0 0 0-2.757-.001m7.351 0a1.378 1.378 0 1 0 2.757.001 1.378 1.378 0 0 0-2.757-.001m-99.244 3.676a1.378 1.378 0 1 0 2.757.001 1.378 1.378 0 0 0-2.757-.001m7.352 0a1.378 1.378 0 1 0 2.756.001 1.378 1.378 0 0 0-2.756-.001m3.675 0a1.378 1.378 0 1 0 2.757.001 1.378 1.378 0 0 0-2.757-.001m3.676 0a1.378 1.378 0 1 0 2.757.001 1.378 1.378 0 0 0-2.757-.001m3.676 0a1.378 1.378 0 1 0 2.756.001 1.378 1.378 0 0 0-2.756-.001m11.027 0a1.378 1.378 0 1 0 2.757.001 1.378 1.378 0 0 0-2.757-.001m3.676 0a1.378 1.378 0 1 0 2.756.001 1.378 1.378 0 0 0-2.756-.001m11.027 0a1.378 1.378 0 1 0 2.756.001 1.378 1.378 0 0 0-2.756-.001m7.351 0a1.378 1.378 0 1 0 2.757.001 1.378 1.378 0 0 0-2.757-.001m3.676 0a1.378 1.378 0 1 0 2.757.001 1.378 1.378 0 0 0-2.758 0Zm3.675 0a1.378 1.378 0 1 0 2.757.001 1.378 1.378 0 0 0-2.757-.001m3.676 0a1.378 1.378 0 1 0 2.757.001 1.378 1.378 0 0 0-2.757-.001m3.676 0a1.378 1.378 0 1 0 2.757.001 1.378 1.378 0 0 0-2.757-.001m7.351 0a1.378 1.378 0 1 0 2.757.001 1.378 1.378 0 0 0-2.757-.001m7.352 0a1.378 1.378 0 1 0 2.757.001 1.378 1.378 0 0 0-2.757-.001m7.351 0a1.378 1.378 0 1 0 2.757.001 1.378 1.378 0 0 0-2.757-.001m3.676 0a1.378 1.378 0 1 0 2.757.001 1.378 1.378 0 0 0-2.757-.001m3.676 0a1.378 1.378 0 1 0 2.757.001 1.378 1.378 0 0 0-2.757-.001m-95.569 3.676a1.378 1.378 0 1 0 2.756 0 1.378 1.378 0 0 0-2.756 0m7.352 0a1.378 1.378 0 1 0 2.756 0 1.378 1.378 0 0 0-2.756 0m3.675 0a1.378 1.378 0 1 0 2.757 0 1.378 1.378 0 0 0-2.757 0m3.676 0a1.378 1.378 0 1 0 2.756 0 1.378 1.378 0 0 0-2.756 0m7.351 0a1.378 1.378 0 1 0 2.757 0 1.378 1.378 0 0 0-2.757 0m11.028 0a1.378 1.378 0 1 0 2.756 0 1.378 1.378 0 0 0-2.756 0m25.73 0a1.378 1.378 0 1 0 2.756 0 1.378 1.378 0 0 0-2.757 0Zm7.351 0a1.378 1.378 0 1 0 2.756 0 1.378 1.378 0 0 0-2.756 0m3.676 0a1.378 1.378 0 1 0 2.756 0 1.378 1.378 0 0 0-2.756 0m3.675 0a1.378 1.378 0 1 0 2.757 0 1.378 1.378 0 0 0-2.757 0m14.703 0a1.378 1.378 0 1 0 2.757 0 1.378 1.378 0 0 0-2.757 0m7.352 0a1.378 1.378 0 1 0 2.756 0 1.378 1.378 0 0 0-2.756 0m3.675 0a1.378 1.378 0 1 0 2.757 0 1.378 1.378 0 0 0-2.757 0m3.676 0a1.378 1.378 0 1 0 2.756 0 1.378 1.378 0 0 0-2.756 0m-102.92 3.676a1.378 1.378 0 1 0 2.756 0 1.378 1.378 0 0 0-2.756 0m7.352 0a1.378 1.378 0 1 0 2.756 0 1.378 1.378 0 0 0-2.756 0m3.675 0a1.378 1.378 0 1 0 2.757 0 1.378 1.378 0 0 0-2.757 0m3.676 0a1.378 1.378 0 1 0 2.756 0 1.378 1.378 0 0 0-2.756 0m22.054 0a1.378 1.378 0 1 0 2.757 0 1.378 1.378 0 0 0-2.757 0m18.379 0a1.378 1.378 0 1 0 2.756 0 1.378 1.378 0 0 0-2.756 0m11.027 0a1.378 1.378 0 1 0 2.756 0 1.378 1.378 0 0 0-2.756 0m7.351 0a1.378 1.378 0 1 0 2.757 0 1.378 1.378 0 0 0-2.757 0m3.676 0a1.378 1.378 0 1 0 2.756 0 1.378 1.378 0 0 0-2.756 0m3.676 0a1.378 1.378 0 1 0 2.756 0 1.378 1.378 0 0 0-2.756 0m3.676 0a1.378 1.378 0 1 0 2.756 0 1.378 1.378 0 0 0-2.756 0m3.675 0a1.378 1.378 0 1 0 2.757 0 1.378 1.378 0 0 0-2.757 0m3.676 0a1.378 1.378 0 1 0 2.756 0 1.378 1.378 0 0 0-2.756 0m3.676 0a1.378 1.378 0 1 0 2.756 0 1.378 1.378 0 0 0-2.756 0m7.351 0a1.378 1.378 0 1 0 2.756 0 1.378 1.378 0 0 0-2.756 0m-95.568 3.675a1.378 1.378 0 1 0 2.756.001 1.378 1.378 0 0 0-2.756-.001m7.351 0a1.378 1.378 0 1 0 2.757.001 1.378 1.378 0 0 0-2.757-.001m3.676 0a1.378 1.378 0 1 0 2.756.001 1.378 1.378 0 0 0-2.756-.001m3.675 0a1.378 1.378 0 1 0 2.757.001 1.378 1.378 0 0 0-2.757-.001m11.028 0a1.378 1.378 0 1 0 2.756.001 1.378 1.378 0 0 0-2.756-.001m7.351 0a1.378 1.378 0 1 0 2.757.001 1.378 1.378 0 0 0-2.757-.001m3.676 0a1.378 1.378 0 1 0 2.756.001 1.378 1.378 0 0 0-2.756-.001m3.675 0a1.378 1.378 0 1 0 2.757.001 1.378 1.378 0 0 0-2.757-.001m11.028 0a1.378 1.378 0 1 0 2.756.001 1.378 1.378 0 0 0-2.757-.001Zm3.675 0a1.378 1.378 0 1 0 2.757.001 1.378 1.378 0 0 0-2.757-.001m3.676 0a1.378 1.378 0 1 0 2.757.001 1.378 1.378 0 0 0-2.757-.001m7.351 0a1.378 1.378 0 1 0 2.757.001 1.378 1.378 0 0 0-2.757-.001m7.352 0a1.378 1.378 0 1 0 2.757.001 1.378 1.378 0 0 0-2.757-.001m3.676 0a1.378 1.378 0 1 0 2.757.001 1.378 1.378 0 0 0-2.757-.001m-80.866 3.676a1.378 1.378 0 1 0 2.756 0 1.378 1.378 0 0 0-2.756 0m3.676 0a1.378 1.378 0 1 0 2.756 0 1.378 1.378 0 0 0-2.756 0m3.675 0a1.378 1.378 0 1 0 2.757 0 1.378 1.378 0 0 0-2.757 0m3.676 0a1.378 1.378 0 1 0 2.756 0 1.378 1.378 0 0 0-2.756 0m3.676 0a1.378 1.378 0 1 0 2.756 0 1.378 1.378 0 0 0-2.756 0m7.351 0a1.378 1.378 0 1 0 2.756 0 1.378 1.378 0 0 0-2.756 0m7.352 0a1.378 1.378 0 1 0 2.756 0 1.378 1.378 0 0 0-2.756 0m3.675 0a1.378 1.378 0 1 0 2.757 0 1.378 1.378 0 0 0-2.757 0m11.027 0a1.378 1.378 0 1 0 2.757 0 1.378 1.378 0 0 0-2.757 0m3.676 0a1.378 1.378 0 1 0 2.756 0 1.378 1.378 0 0 0-2.756 0m3.676 0a1.378 1.378 0 1 0 2.756 0 1.378 1.378 0 0 0-2.756 0m3.675 0a1.378 1.378 0 1 0 2.757 0 1.378 1.378 0 0 0-2.757 0m7.352 0a1.378 1.378 0 1 0 2.756 0 1.378 1.378 0 0 0-2.756 0m3.676 0a1.378 1.378 0 1 0 2.756 0 1.378 1.378 0 0 0-2.756 0m3.675 0a1.378 1.378 0 1 0 2.757 0 1.378 1.378 0 0 0-2.757 0m7.352 0a1.378 1.378 0 1 0 2.756 0 1.378 1.378 0 0 0-2.756 0m3.676 0a1.378 1.378 0 1 0 2.756 0 1.378 1.378 0 0 0-2.756 0m7.351 0a1.378 1.378 0 1 0 2.756 0 1.378 1.378 0 0 0-2.756 0m7.351 0a1.378 1.378 0 1 0 2.757 0 1.378 1.378 0 0 0-2.757 0m-91.892 3.676a1.378 1.378 0 1 0 2.756 0 1.378 1.378 0 0 0-2.756 0m3.675 0a1.378 1.378 0 1 0 2.757 0 1.378 1.378 0 0 0-2.757 0m3.676 0a1.378 1.378 0 1 0 2.756 0 1.378 1.378 0 0 0-2.756 0m22.054 0a1.378 1.378 0 1 0 2.757 0 1.378 1.378 0 0 0-2.757 0m11.027 0a1.378 1.378 0 1 0 2.757 0 1.378 1.378 0 0 0-2.757 0m3.676 0a1.378 1.378 0 1 0 2.756 0 1.378 1.378 0 0 0-2.756 0m3.676 0a1.378 1.378 0 1 0 2.756 0 1.378 1.378 0 0 0-2.756 0m11.027 0a1.378 1.378 0 1 0 2.756 0 1.378 1.378 0 0 0-2.756 0m3.676 0a1.378 1.378 0 1 0 2.756 0 1.378 1.378 0 0 0-2.756 0m11.027 0a1.378 1.378 0 1 0 2.756 0 1.378 1.378 0 0 0-2.756 0m7.351 0a1.378 1.378 0 1 0 2.757 0 1.378 1.378 0 0 0-2.757 0m7.352 0a1.378 1.378 0 1 0 2.756 0 1.378 1.378 0 0 0-2.756 0m3.675 0a1.378 1.378 0 1 0 2.757 0 1.378 1.378 0 0 0-2.757 0m-84.541 3.675a1.378 1.378 0 1 0 2.757.001 1.378 1.378 0 0 0-2.757-.001m3.676 0a1.378 1.378 0 1 0 2.756.001 1.378 1.378 0 0 0-2.756-.001m3.675 0a1.378 1.378 0 1 0 2.757.001 1.378 1.378 0 0 0-2.757-.001m3.676 0a1.378 1.378 0 1 0 2.757.001 1.378 1.378 0 0 0-2.757-.001m3.676 0a1.378 1.378 0 1 0 2.757.001 1.378 1.378 0 0 0-2.757-.001m18.378 0a1.378 1.378 0 1 0 2.757.001 1.378 1.378 0 0 0-2.757-.001m11.028 0a1.378 1.378 0 1 0 2.756.001 1.378 1.378 0 0 0-2.757-.001Zm7.351 0a1.378 1.378 0 1 0 2.757.001 1.378 1.378 0 0 0-2.757-.001m14.703 0a1.378 1.378 0 1 0 2.757.001 1.378 1.378 0 0 0-2.757-.001m14.703 0a1.378 1.378 0 1 0 2.757.001 1.378 1.378 0 0 0-2.757-.001m3.675 0a1.378 1.378 0 1 0 2.757.001 1.378 1.378 0 0 0-2.757-.001m3.676 0a1.378 1.378 0 1 0 2.757.001 1.378 1.378 0 0 0-2.757-.001M16.277 3.94a5.526 5.526 0 0 1 5.517 5.517v6.828a5.525 5.525 0 0 1-5.517 5.517H9.449a5.526 5.526 0 0 1-5.517-5.517V9.457A5.526 5.526 0 0 1 9.449 3.94zm0-3.94H9.449C4.234 0 0 4.226 0 9.448v6.828a9.447 9.447 0 0 0 9.448 9.447h6.828c5.214 0 9.447-4.225 9.447-9.447V9.448A9.445 9.445 0 0 0 16.277 0m2.099 16.277V9.449a2.095 2.095 0 0 0-2.1-2.099H9.45a2.095 2.095 0 0 0-2.099 2.1v6.827c0 1.163.937 2.099 2.1 2.099h6.827a2.095 2.095 0 0 0 2.099-2.1Zm-2.1 97.938a5.525 5.525 0 0 1 5.518 5.517v6.828a5.525 5.525 0 0 1-5.517 5.517H9.449a5.525 5.525 0 0 1-5.517-5.517v-6.828a5.525 5.525 0 0 1 5.517-5.517h6.828Zm0-3.938H9.45c-5.214 0-9.448 4.225-9.448 9.447v6.828c0 5.214 4.226 9.448 9.448 9.448h6.828c5.214 0 9.448-4.226 9.448-9.448v-6.828a9.447 9.447 0 0 0-9.448-9.447Zm2.1 16.284v-6.827a2.095 2.095 0 0 0-2.1-2.099H9.45a2.095 2.095 0 0 0-2.099 2.099v6.827c0 1.163.937 2.099 2.1 2.099h6.827a2.095 2.095 0 0 0 2.099-2.099ZM126.553 3.94a5.526 5.526 0 0 1 5.518 5.517v6.828a5.526 5.526 0 0 1-5.518 5.517h-6.827a5.526 5.526 0 0 1-5.518-5.517V9.457a5.526 5.526 0 0 1 5.518-5.517zm0-3.94h-6.827c-5.216 0-9.449 4.226-9.449 9.448v6.828c0 5.214 4.225 9.447 9.447 9.447h6.828c5.214 0 9.448-4.225 9.448-9.447V9.448C136 4.234 131.774 0 126.552 0zm2.1 16.277V9.449a2.096 2.096 0 0 0-2.1-2.099h-6.827a2.095 2.095 0 0 0-2.099 2.1v6.827c0 1.163.937 2.099 2.099 2.099h6.827c1.164 0 2.1-.937 2.1-2.1Zm-60.83 39.746c7.193-.096 13.05 5.7 13.05 12.868 0 4.694-2.517 8.798-6.265 11.045a.356.356 0 0 1-.443-.06l-4.32-4.599a.36.36 0 0 1 .147-.581c2.412-.833 4.147-2.378 4.147-5.805a6.13 6.13 0 0 0-6.238-6.135c-3.366.053-6.03 2.863-6.03 6.23v10.593a.357.357 0 0 1-.546.303 12.86 12.86 0 0 1-6.185-10.836c-.087-7.063 5.622-12.928 12.685-13.023z"/>
  </svg>
</svg>